<mxfile host="app.diagrams.net" modified="2024-02-22T11:06:04.050Z" agent="Mozilla/5.0 (Windows NT 10.0; Win64; x64) AppleWebKit/537.36 (KHTML, like Gecko) Chrome/121.0.0.0 Safari/537.36 Edg/121.0.0.0" version="23.1.5" etag="YxyNu7O_lFRb7xrEigfd" type="github">
  <diagram name="Page-1" id="L3APk_D6AXbefvucbMkJ">
    <mxGraphModel>
      <root>
        <mxCell id="0" />
        <mxCell id="1" parent="0" />
      </root>
    </mxGraphModel>
  </diagram>
</mxfile>
